<?xml version="1.0" encoding="UTF-8" standalone="no"?>
<!DOCTYPE svg PUBLIC "-//W3C//DTD SVG 1.1//EN"
 "http://www.w3.org/Graphics/SVG/1.1/DTD/svg11.dtd">
<!-- Generated by graphviz version 13.1.2 (0)
 -->
<!-- Title: G Pages: 1 -->
<svg width="1817pt" height="429pt"
 viewBox="0.00 0.00 1817.00 429.00" xmlns="http://www.w3.org/2000/svg" xmlns:xlink="http://www.w3.org/1999/xlink">
<g id="graph0" class="graph" transform="scale(1 1) rotate(0) translate(4 424.5)">
<title>G</title>
<polygon fill="white" stroke="none" points="-4,4 -4,-424.5 1813.33,-424.5 1813.33,4 -4,4"/>
<text xml:space="preserve" text-anchor="middle" x="904.67" y="-7.2" font-family="Times,serif" font-size="14.00">Graph G. Num leaves: 20. Num items: 20.</text>
<!-- R0 -->
<g id="node1" class="node">
<title>R0</title>
<ellipse fill="none" stroke="black" cx="879.86" cy="-402.5" rx="27" ry="18"/>
<text xml:space="preserve" text-anchor="middle" x="879.86" y="-397.45" font-family="Times,serif" font-size="14.00">R0</text>
</g>
<!-- N1 -->
<g id="node2" class="node">
<title>N1</title>
<ellipse fill="none" stroke="black" cx="698.86" cy="-330.5" rx="27" ry="18"/>
<text xml:space="preserve" text-anchor="middle" x="698.86" y="-325.45" font-family="Times,serif" font-size="14.00">N1</text>
</g>
<!-- R0&#45;&#45;N1 -->
<g id="edge1" class="edge">
<title>R0&#45;&#45;N1</title>
<path fill="none" stroke="black" d="M856.94,-392.63C822.22,-379.21 756.67,-353.85 721.89,-340.4"/>
</g>
<!-- N18 -->
<g id="node19" class="node">
<title>N18</title>
<ellipse fill="none" stroke="black" cx="1093.86" cy="-330.5" rx="27" ry="18"/>
<text xml:space="preserve" text-anchor="middle" x="1093.86" y="-325.45" font-family="Times,serif" font-size="14.00">N18</text>
</g>
<!-- R0&#45;&#45;N18 -->
<g id="edge18" class="edge">
<title>R0&#45;&#45;N18</title>
<path fill="none" stroke="black" d="M903.58,-393.74C944.72,-380.29 1028.83,-352.77 1070.04,-339.29"/>
</g>
<!-- N2 -->
<g id="node3" class="node">
<title>N2</title>
<ellipse fill="none" stroke="black" cx="308.86" cy="-258.5" rx="27" ry="18"/>
<text xml:space="preserve" text-anchor="middle" x="308.86" y="-253.45" font-family="Times,serif" font-size="14.00">N2</text>
</g>
<!-- N1&#45;&#45;N2 -->
<g id="edge2" class="edge">
<title>N1&#45;&#45;N2</title>
<path fill="none" stroke="black" d="M672.97,-324.85C602.2,-312.15 406.06,-276.95 335,-264.19"/>
</g>
<!-- N11 -->
<g id="node12" class="node">
<title>N11</title>
<ellipse fill="none" stroke="black" cx="698.86" cy="-258.5" rx="27" ry="18"/>
<text xml:space="preserve" text-anchor="middle" x="698.86" y="-253.45" font-family="Times,serif" font-size="14.00">N11</text>
</g>
<!-- N1&#45;&#45;N11 -->
<g id="edge11" class="edge">
<title>N1&#45;&#45;N11</title>
<path fill="none" stroke="black" d="M698.86,-312.2C698.86,-301.35 698.86,-287.42 698.86,-276.6"/>
</g>
<!-- N3 -->
<g id="node4" class="node">
<title>N3</title>
<ellipse fill="none" stroke="black" cx="148.86" cy="-186.5" rx="27" ry="18"/>
<text xml:space="preserve" text-anchor="middle" x="148.86" y="-181.45" font-family="Times,serif" font-size="14.00">N3</text>
</g>
<!-- N2&#45;&#45;N3 -->
<g id="edge3" class="edge">
<title>N2&#45;&#45;N3</title>
<path fill="none" stroke="black" d="M286.62,-247.77C256.13,-234.43 201.7,-210.61 171.18,-197.26"/>
</g>
<!-- N8 -->
<g id="node9" class="node">
<title>N8</title>
<ellipse fill="none" stroke="black" cx="308.86" cy="-186.5" rx="27" ry="18"/>
<text xml:space="preserve" text-anchor="middle" x="308.86" y="-181.45" font-family="Times,serif" font-size="14.00">N8</text>
</g>
<!-- N2&#45;&#45;N8 -->
<g id="edge8" class="edge">
<title>N2&#45;&#45;N8</title>
<path fill="none" stroke="black" d="M308.86,-240.2C308.86,-229.35 308.86,-215.42 308.86,-204.6"/>
</g>
<!-- L4 -->
<g id="node5" class="node">
<title>L4</title>
<ellipse fill="none" stroke="black" cx="51.86" cy="-114.5" rx="51.86" ry="18"/>
<text xml:space="preserve" text-anchor="middle" x="51.86" y="-109.45" font-family="Times,serif" font-size="14.00">L4, Size: 1</text>
</g>
<!-- N3&#45;&#45;L4 -->
<g id="edge4" class="edge">
<title>N3&#45;&#45;L4</title>
<path fill="none" stroke="black" d="M131.07,-172.66C114.88,-160.98 90.94,-143.7 73.62,-131.2"/>
</g>
<!-- N5 -->
<g id="node6" class="node">
<title>N5</title>
<ellipse fill="none" stroke="black" cx="148.86" cy="-114.5" rx="27" ry="18"/>
<text xml:space="preserve" text-anchor="middle" x="148.86" y="-109.45" font-family="Times,serif" font-size="14.00">N5</text>
</g>
<!-- N3&#45;&#45;N5 -->
<g id="edge5" class="edge">
<title>N3&#45;&#45;N5</title>
<path fill="none" stroke="black" d="M148.86,-168.2C148.86,-157.35 148.86,-143.42 148.86,-132.6"/>
</g>
<!-- L6 -->
<g id="node7" class="node">
<title>L6</title>
<ellipse fill="none" stroke="black" cx="87.86" cy="-42.5" rx="51.86" ry="18"/>
<text xml:space="preserve" text-anchor="middle" x="87.86" y="-37.45" font-family="Times,serif" font-size="14.00">L6, Size: 1</text>
</g>
<!-- N5&#45;&#45;L6 -->
<g id="edge6" class="edge">
<title>N5&#45;&#45;L6</title>
<path fill="none" stroke="black" d="M135.63,-98.31C125.82,-87.05 112.45,-71.72 102.35,-60.13"/>
</g>
<!-- L7 -->
<g id="node8" class="node">
<title>L7</title>
<ellipse fill="none" stroke="black" cx="209.86" cy="-42.5" rx="51.86" ry="18"/>
<text xml:space="preserve" text-anchor="middle" x="209.86" y="-37.45" font-family="Times,serif" font-size="14.00">L7, Size: 1</text>
</g>
<!-- N5&#45;&#45;L7 -->
<g id="edge7" class="edge">
<title>N5&#45;&#45;L7</title>
<path fill="none" stroke="black" d="M162.1,-98.31C171.91,-87.05 185.28,-71.72 195.37,-60.13"/>
</g>
<!-- L9 -->
<g id="node10" class="node">
<title>L9</title>
<ellipse fill="none" stroke="black" cx="245.86" cy="-114.5" rx="51.86" ry="18"/>
<text xml:space="preserve" text-anchor="middle" x="245.86" y="-109.45" font-family="Times,serif" font-size="14.00">L9, Size: 1</text>
</g>
<!-- N8&#45;&#45;L9 -->
<g id="edge9" class="edge">
<title>N8&#45;&#45;L9</title>
<path fill="none" stroke="black" d="M295.5,-170.65C285.24,-159.26 271.09,-143.53 260.52,-131.79"/>
</g>
<!-- L10 -->
<g id="node11" class="node">
<title>L10</title>
<ellipse fill="none" stroke="black" cx="371.86" cy="-114.5" rx="56.47" ry="18"/>
<text xml:space="preserve" text-anchor="middle" x="371.86" y="-109.45" font-family="Times,serif" font-size="14.00">L10, Size: 1</text>
</g>
<!-- N8&#45;&#45;L10 -->
<g id="edge10" class="edge">
<title>N8&#45;&#45;L10</title>
<path fill="none" stroke="black" d="M322.22,-170.65C332.34,-159.42 346.23,-143.98 356.75,-132.29"/>
</g>
<!-- N12 -->
<g id="node13" class="node">
<title>N12</title>
<ellipse fill="none" stroke="black" cx="633.86" cy="-186.5" rx="27" ry="18"/>
<text xml:space="preserve" text-anchor="middle" x="633.86" y="-181.45" font-family="Times,serif" font-size="14.00">N12</text>
</g>
<!-- N11&#45;&#45;N12 -->
<g id="edge12" class="edge">
<title>N11&#45;&#45;N12</title>
<path fill="none" stroke="black" d="M685.08,-242.65C674.05,-230.78 658.65,-214.2 647.63,-202.32"/>
</g>
<!-- N15 -->
<g id="node16" class="node">
<title>N15</title>
<ellipse fill="none" stroke="black" cx="764.86" cy="-186.5" rx="27" ry="18"/>
<text xml:space="preserve" text-anchor="middle" x="764.86" y="-181.45" font-family="Times,serif" font-size="14.00">N15</text>
</g>
<!-- N11&#45;&#45;N15 -->
<g id="edge15" class="edge">
<title>N11&#45;&#45;N15</title>
<path fill="none" stroke="black" d="M712.86,-242.65C724.06,-230.78 739.69,-214.2 750.89,-202.32"/>
</g>
<!-- L13 -->
<g id="node14" class="node">
<title>L13</title>
<ellipse fill="none" stroke="black" cx="502.86" cy="-114.5" rx="56.47" ry="18"/>
<text xml:space="preserve" text-anchor="middle" x="502.86" y="-109.45" font-family="Times,serif" font-size="14.00">L13, Size: 1</text>
</g>
<!-- N12&#45;&#45;L13 -->
<g id="edge13" class="edge">
<title>N12&#45;&#45;L13</title>
<path fill="none" stroke="black" d="M613.11,-174.41C590.89,-162.53 555.5,-143.63 530.84,-130.45"/>
</g>
<!-- L14 -->
<g id="node15" class="node">
<title>L14</title>
<ellipse fill="none" stroke="black" cx="633.86" cy="-114.5" rx="56.47" ry="18"/>
<text xml:space="preserve" text-anchor="middle" x="633.86" y="-109.45" font-family="Times,serif" font-size="14.00">L14, Size: 1</text>
</g>
<!-- N12&#45;&#45;L14 -->
<g id="edge14" class="edge">
<title>N12&#45;&#45;L14</title>
<path fill="none" stroke="black" d="M633.86,-168.2C633.86,-157.35 633.86,-143.42 633.86,-132.6"/>
</g>
<!-- L16 -->
<g id="node17" class="node">
<title>L16</title>
<ellipse fill="none" stroke="black" cx="764.86" cy="-114.5" rx="56.47" ry="18"/>
<text xml:space="preserve" text-anchor="middle" x="764.86" y="-109.45" font-family="Times,serif" font-size="14.00">L16, Size: 1</text>
</g>
<!-- N15&#45;&#45;L16 -->
<g id="edge16" class="edge">
<title>N15&#45;&#45;L16</title>
<path fill="none" stroke="black" d="M764.86,-168.2C764.86,-157.35 764.86,-143.42 764.86,-132.6"/>
</g>
<!-- L17 -->
<g id="node18" class="node">
<title>L17</title>
<ellipse fill="none" stroke="black" cx="895.86" cy="-114.5" rx="56.47" ry="18"/>
<text xml:space="preserve" text-anchor="middle" x="895.86" y="-109.45" font-family="Times,serif" font-size="14.00">L17, Size: 1</text>
</g>
<!-- N15&#45;&#45;L17 -->
<g id="edge17" class="edge">
<title>N15&#45;&#45;L17</title>
<path fill="none" stroke="black" d="M785.62,-174.41C807.84,-162.53 843.22,-143.63 867.89,-130.45"/>
</g>
<!-- N19 -->
<g id="node20" class="node">
<title>N19</title>
<ellipse fill="none" stroke="black" cx="1093.86" cy="-258.5" rx="27" ry="18"/>
<text xml:space="preserve" text-anchor="middle" x="1093.86" y="-253.45" font-family="Times,serif" font-size="14.00">N19</text>
</g>
<!-- N18&#45;&#45;N19 -->
<g id="edge19" class="edge">
<title>N18&#45;&#45;N19</title>
<path fill="none" stroke="black" d="M1093.86,-312.2C1093.86,-301.35 1093.86,-287.42 1093.86,-276.6"/>
</g>
<!-- N28 -->
<g id="node29" class="node">
<title>N28</title>
<ellipse fill="none" stroke="black" cx="1278.86" cy="-258.5" rx="27" ry="18"/>
<text xml:space="preserve" text-anchor="middle" x="1278.86" y="-253.45" font-family="Times,serif" font-size="14.00">N28</text>
</g>
<!-- N18&#45;&#45;N28 -->
<g id="edge28" class="edge">
<title>N18&#45;&#45;N28</title>
<path fill="none" stroke="black" d="M1116.92,-320.78C1152.47,-307.33 1220.26,-281.67 1255.81,-268.22"/>
</g>
<!-- N20 -->
<g id="node21" class="node">
<title>N20</title>
<ellipse fill="none" stroke="black" cx="1043.86" cy="-186.5" rx="27" ry="18"/>
<text xml:space="preserve" text-anchor="middle" x="1043.86" y="-181.45" font-family="Times,serif" font-size="14.00">N20</text>
</g>
<!-- N19&#45;&#45;N20 -->
<g id="edge20" class="edge">
<title>N19&#45;&#45;N20</title>
<path fill="none" stroke="black" d="M1082.77,-241.96C1074.48,-230.36 1063.21,-214.58 1054.93,-202.99"/>
</g>
<!-- L27 -->
<g id="node28" class="node">
<title>L27</title>
<ellipse fill="none" stroke="black" cx="1144.86" cy="-186.5" rx="56.47" ry="18"/>
<text xml:space="preserve" text-anchor="middle" x="1144.86" y="-181.45" font-family="Times,serif" font-size="14.00">L27, Size: 1</text>
</g>
<!-- N19&#45;&#45;L27 -->
<g id="edge27" class="edge">
<title>N19&#45;&#45;L27</title>
<path fill="none" stroke="black" d="M1105.18,-241.96C1113.28,-230.85 1124.18,-215.89 1132.51,-204.46"/>
</g>
<!-- N21 -->
<g id="node22" class="node">
<title>N21</title>
<ellipse fill="none" stroke="black" cx="996.86" cy="-114.5" rx="27" ry="18"/>
<text xml:space="preserve" text-anchor="middle" x="996.86" y="-109.45" font-family="Times,serif" font-size="14.00">N21</text>
</g>
<!-- N20&#45;&#45;N21 -->
<g id="edge21" class="edge">
<title>N20&#45;&#45;N21</title>
<path fill="none" stroke="black" d="M1033.2,-169.62C1025.51,-158.16 1015.17,-142.76 1007.49,-131.32"/>
</g>
<!-- N24 -->
<g id="node25" class="node">
<title>N24</title>
<ellipse fill="none" stroke="black" cx="1097.86" cy="-114.5" rx="27" ry="18"/>
<text xml:space="preserve" text-anchor="middle" x="1097.86" y="-109.45" font-family="Times,serif" font-size="14.00">N24</text>
</g>
<!-- N20&#45;&#45;N24 -->
<g id="edge24" class="edge">
<title>N20&#45;&#45;N24</title>
<path fill="none" stroke="black" d="M1055.85,-169.96C1064.8,-158.36 1076.97,-142.58 1085.91,-130.99"/>
</g>
<!-- L22 -->
<g id="node23" class="node">
<title>L22</title>
<ellipse fill="none" stroke="black" cx="835.86" cy="-42.5" rx="56.47" ry="18"/>
<text xml:space="preserve" text-anchor="middle" x="835.86" y="-37.45" font-family="Times,serif" font-size="14.00">L22, Size: 1</text>
</g>
<!-- N21&#45;&#45;L22 -->
<g id="edge22" class="edge">
<title>N21&#45;&#45;L22</title>
<path fill="none" stroke="black" d="M975.23,-103.11C970.51,-100.89 965.53,-98.59 960.86,-96.5 930.1,-82.72 894.7,-67.8 869.45,-57.31"/>
</g>
<!-- L23 -->
<g id="node24" class="node">
<title>L23</title>
<ellipse fill="none" stroke="black" cx="966.86" cy="-42.5" rx="56.47" ry="18"/>
<text xml:space="preserve" text-anchor="middle" x="966.86" y="-37.45" font-family="Times,serif" font-size="14.00">L23, Size: 1</text>
</g>
<!-- N21&#45;&#45;L23 -->
<g id="edge23" class="edge">
<title>N21&#45;&#45;L23</title>
<path fill="none" stroke="black" d="M989.75,-96.91C985.04,-85.91 978.87,-71.53 974.13,-60.46"/>
</g>
<!-- L25 -->
<g id="node26" class="node">
<title>L25</title>
<ellipse fill="none" stroke="black" cx="1097.86" cy="-42.5" rx="56.47" ry="18"/>
<text xml:space="preserve" text-anchor="middle" x="1097.86" y="-37.45" font-family="Times,serif" font-size="14.00">L25, Size: 1</text>
</g>
<!-- N24&#45;&#45;L25 -->
<g id="edge25" class="edge">
<title>N24&#45;&#45;L25</title>
<path fill="none" stroke="black" d="M1097.86,-96.2C1097.86,-85.35 1097.86,-71.42 1097.86,-60.6"/>
</g>
<!-- L26 -->
<g id="node27" class="node">
<title>L26</title>
<ellipse fill="none" stroke="black" cx="1228.86" cy="-42.5" rx="56.47" ry="18"/>
<text xml:space="preserve" text-anchor="middle" x="1228.86" y="-37.45" font-family="Times,serif" font-size="14.00">L26, Size: 1</text>
</g>
<!-- N24&#45;&#45;L26 -->
<g id="edge26" class="edge">
<title>N24&#45;&#45;L26</title>
<path fill="none" stroke="black" d="M1118.62,-102.41C1140.84,-90.53 1176.22,-71.63 1200.89,-58.45"/>
</g>
<!-- N29 -->
<g id="node30" class="node">
<title>N29</title>
<ellipse fill="none" stroke="black" cx="1278.86" cy="-186.5" rx="27" ry="18"/>
<text xml:space="preserve" text-anchor="middle" x="1278.86" y="-181.45" font-family="Times,serif" font-size="14.00">N29</text>
</g>
<!-- N28&#45;&#45;N29 -->
<g id="edge29" class="edge">
<title>N28&#45;&#45;N29</title>
<path fill="none" stroke="black" d="M1278.86,-240.2C1278.86,-229.35 1278.86,-215.42 1278.86,-204.6"/>
</g>
<!-- N32 -->
<g id="node33" class="node">
<title>N32</title>
<ellipse fill="none" stroke="black" cx="1475.86" cy="-186.5" rx="27" ry="18"/>
<text xml:space="preserve" text-anchor="middle" x="1475.86" y="-181.45" font-family="Times,serif" font-size="14.00">N32</text>
</g>
<!-- N28&#45;&#45;N32 -->
<g id="edge32" class="edge">
<title>N28&#45;&#45;N32</title>
<path fill="none" stroke="black" d="M1302.24,-249.2C1340.05,-235.76 1414.23,-209.4 1452.22,-195.9"/>
</g>
<!-- L30 -->
<g id="node31" class="node">
<title>L30</title>
<ellipse fill="none" stroke="black" cx="1213.86" cy="-114.5" rx="56.47" ry="18"/>
<text xml:space="preserve" text-anchor="middle" x="1213.86" y="-109.45" font-family="Times,serif" font-size="14.00">L30, Size: 1</text>
</g>
<!-- N29&#45;&#45;L30 -->
<g id="edge30" class="edge">
<title>N29&#45;&#45;L30</title>
<path fill="none" stroke="black" d="M1265.08,-170.65C1254.64,-159.42 1240.31,-143.98 1229.45,-132.29"/>
</g>
<!-- L31 -->
<g id="node32" class="node">
<title>L31</title>
<ellipse fill="none" stroke="black" cx="1344.86" cy="-114.5" rx="56.47" ry="18"/>
<text xml:space="preserve" text-anchor="middle" x="1344.86" y="-109.45" font-family="Times,serif" font-size="14.00">L31, Size: 1</text>
</g>
<!-- N29&#45;&#45;L31 -->
<g id="edge31" class="edge">
<title>N29&#45;&#45;L31</title>
<path fill="none" stroke="black" d="M1292.86,-170.65C1303.61,-159.26 1318.43,-143.53 1329.5,-131.79"/>
</g>
<!-- N33 -->
<g id="node34" class="node">
<title>N33</title>
<ellipse fill="none" stroke="black" cx="1475.86" cy="-114.5" rx="27" ry="18"/>
<text xml:space="preserve" text-anchor="middle" x="1475.86" y="-109.45" font-family="Times,serif" font-size="14.00">N33</text>
</g>
<!-- N32&#45;&#45;N33 -->
<g id="edge33" class="edge">
<title>N32&#45;&#45;N33</title>
<path fill="none" stroke="black" d="M1475.86,-168.2C1475.86,-157.35 1475.86,-143.42 1475.86,-132.6"/>
</g>
<!-- N36 -->
<g id="node37" class="node">
<title>N36</title>
<ellipse fill="none" stroke="black" cx="1621.86" cy="-114.5" rx="27" ry="18"/>
<text xml:space="preserve" text-anchor="middle" x="1621.86" y="-109.45" font-family="Times,serif" font-size="14.00">N36</text>
</g>
<!-- N32&#45;&#45;N36 -->
<g id="edge36" class="edge">
<title>N32&#45;&#45;N36</title>
<path fill="none" stroke="black" d="M1497.41,-175.17C1525.01,-161.94 1572.59,-139.13 1600.23,-125.87"/>
</g>
<!-- L34 -->
<g id="node35" class="node">
<title>L34</title>
<ellipse fill="none" stroke="black" cx="1359.86" cy="-42.5" rx="56.47" ry="18"/>
<text xml:space="preserve" text-anchor="middle" x="1359.86" y="-37.45" font-family="Times,serif" font-size="14.00">L34, Size: 1</text>
</g>
<!-- N33&#45;&#45;L34 -->
<g id="edge34" class="edge">
<title>N33&#45;&#45;L34</title>
<path fill="none" stroke="black" d="M1456.19,-101.63C1436.66,-89.85 1406.66,-71.74 1385.33,-58.87"/>
</g>
<!-- L35 -->
<g id="node36" class="node">
<title>L35</title>
<ellipse fill="none" stroke="black" cx="1490.86" cy="-42.5" rx="56.47" ry="18"/>
<text xml:space="preserve" text-anchor="middle" x="1490.86" y="-37.45" font-family="Times,serif" font-size="14.00">L35, Size: 1</text>
</g>
<!-- N33&#45;&#45;L35 -->
<g id="edge35" class="edge">
<title>N33&#45;&#45;L35</title>
<path fill="none" stroke="black" d="M1479.57,-96.2C1481.9,-85.35 1484.88,-71.42 1487.2,-60.6"/>
</g>
<!-- L37 -->
<g id="node38" class="node">
<title>L37</title>
<ellipse fill="none" stroke="black" cx="1621.86" cy="-42.5" rx="56.47" ry="18"/>
<text xml:space="preserve" text-anchor="middle" x="1621.86" y="-37.45" font-family="Times,serif" font-size="14.00">L37, Size: 1</text>
</g>
<!-- N36&#45;&#45;L37 -->
<g id="edge37" class="edge">
<title>N36&#45;&#45;L37</title>
<path fill="none" stroke="black" d="M1621.86,-96.2C1621.86,-85.35 1621.86,-71.42 1621.86,-60.6"/>
</g>
<!-- L38 -->
<g id="node39" class="node">
<title>L38</title>
<ellipse fill="none" stroke="black" cx="1752.86" cy="-42.5" rx="56.47" ry="18"/>
<text xml:space="preserve" text-anchor="middle" x="1752.86" y="-37.45" font-family="Times,serif" font-size="14.00">L38, Size: 1</text>
</g>
<!-- N36&#45;&#45;L38 -->
<g id="edge38" class="edge">
<title>N36&#45;&#45;L38</title>
<path fill="none" stroke="black" d="M1642.62,-102.41C1664.84,-90.53 1700.22,-71.63 1724.89,-58.45"/>
</g>
</g>
</svg>
